<svg width="19" height="17" viewBox="0 0 19 17" fill="none" xmlns="http://www.w3.org/2000/svg">
<path d="M9.02588 0.415684C9.17825 -0.0392711 9.82175 -0.039272 9.97412 0.415683L11.6792 5.50685C11.7469 5.70911 11.9355 5.84612 12.1488 5.84804L17.5177 5.89639C17.9974 5.90071 18.1963 6.51272 17.8107 6.79821L13.4956 9.99307C13.3242 10.12 13.2521 10.3417 13.3162 10.5451L14.9293 15.6662C15.0735 16.1238 14.5528 16.502 14.1622 16.2235L9.79024 13.1069C9.61655 12.9831 9.38345 12.9831 9.20976 13.1069L4.83784 16.2235C4.44715 16.502 3.92655 16.1238 4.0707 15.6662L5.68379 10.5451C5.74788 10.3417 5.67584 10.12 5.50441 9.99307L1.18932 6.79821C0.803716 6.51272 1.00257 5.90071 1.48234 5.89639L6.85121 5.84804C7.06451 5.84612 7.25309 5.70911 7.32083 5.50685L9.02588 0.415684Z" fill="#FFC107"/>
</svg>
