<svg width="20" height="21" viewBox="0 0 20 21" fill="none" xmlns="http://www.w3.org/2000/svg">
<g clip-path="url(#clip0_237_290)">
<path d="M18.3333 14.8539V17.3539C18.3343 17.586 18.2867 17.8158 18.1937 18.0284C18.1008 18.2411 17.9644 18.4319 17.7934 18.5888C17.6224 18.7457 17.4205 18.8652 17.2006 18.9395C16.9808 19.0139 16.7478 19.0415 16.5167 19.0206C13.9523 18.742 11.4892 17.8657 9.32498 16.4623C7.31151 15.1828 5.60443 13.4758 4.32499 11.4623C2.91663 9.28828 2.04019 6.81311 1.76665 4.23728C1.74583 4.00684 1.77321 3.77458 1.84707 3.5553C1.92092 3.33602 2.03963 3.13452 2.19562 2.96363C2.35162 2.79274 2.54149 2.6562 2.75314 2.56271C2.9648 2.46923 3.1936 2.42083 3.42499 2.42061H5.92499C6.32941 2.41663 6.72148 2.55985 7.02812 2.82356C7.33476 3.08727 7.53505 3.45349 7.59165 3.85395C7.69717 4.654 7.89286 5.43955 8.17499 6.19561C8.2871 6.49388 8.31137 6.81804 8.24491 7.12968C8.17844 7.44132 8.02404 7.72737 7.79998 7.95395L6.74165 9.01228C7.92795 11.0986 9.65536 12.826 11.7417 14.0123L12.8 12.9539C13.0266 12.7299 13.3126 12.5755 13.6243 12.509C13.9359 12.4426 14.26 12.4668 14.5583 12.5789C15.3144 12.8611 16.0999 13.0568 16.9 13.1623C17.3048 13.2194 17.6745 13.4233 17.9388 13.7352C18.203 14.0471 18.3435 14.4453 18.3333 14.8539Z" stroke="black" stroke-opacity="0.7" stroke-width="2" stroke-linecap="round" stroke-linejoin="round"/>
</g>
<defs>
<clipPath id="clip0_237_290">
<rect width="20" height="20" fill="white" transform="translate(0 0.753906)"/>
</clipPath>
</defs>
</svg>
