<svg width="20" height="17" viewBox="0 0 20 17" fill="none" xmlns="http://www.w3.org/2000/svg">
<path d="M18.6339 0.0694687L0.520771 7.20066C0.509994 7.20488 0.499547 7.20993 0.48952 7.21576C0.34264 7.30041 -0.682396 7.9383 0.762967 8.51021L0.777811 8.51577L5.09085 9.93342C5.12376 9.9443 5.1586 9.94773 5.19295 9.94347C5.22729 9.93922 5.26031 9.92738 5.28969 9.90878L15.9873 3.1182C16.0135 3.10154 16.0428 3.09033 16.0733 3.08521C16.2221 3.06017 16.6506 3.01327 16.3795 3.36342C16.0729 3.76085 8.76598 10.4227 7.95501 11.1615C7.90825 11.2042 7.87932 11.2635 7.87415 11.3272L7.52023 15.6195C7.52019 15.6633 7.53015 15.7064 7.54934 15.7455C7.56853 15.7846 7.59642 15.8186 7.63078 15.8449C7.67955 15.8761 7.73689 15.8906 7.79436 15.8862C7.85182 15.8817 7.90636 15.8586 7.94993 15.8202L10.5125 13.4901C10.553 13.4533 10.6046 13.4317 10.6589 13.4289C10.7131 13.426 10.7666 13.4422 10.8106 13.4746L15.2814 16.7773L15.2959 16.7872C15.4041 16.8552 16.5729 17.5471 16.9104 16.0019L19.9964 1.0722C20.0007 1.0249 20.0425 0.505058 19.6773 0.19784C19.2937 -0.123288 18.7507 0.0388661 18.6691 0.0563532C18.657 0.0597641 18.6453 0.0641499 18.6339 0.0694687Z" fill="black" fill-opacity="1"/>
</svg>
