<svg width="20" height="21" viewBox="0 0 20 21" fill="none" xmlns="http://www.w3.org/2000/svg">
<g clip-path="url(#clip0_237_294)">
<path fill-rule="evenodd" clip-rule="evenodd" d="M17.0858 3.66021C15.206 1.787 12.7059 0.754882 10.042 0.753906C4.55286 0.753906 0.0854902 5.19937 0.0835686 10.6636C0.0826275 12.4104 0.54149 14.1154 1.4129 15.618L0 20.7539L5.2791 19.3758C6.73349 20.1656 8.37126 20.5814 10.0377 20.5819H10.042C15.5302 20.5819 19.9981 16.136 20 10.6717C20.0009 8.02348 18.9662 5.53392 17.0858 3.66068V3.66021ZM10.042 18.9083H10.0387C8.55365 18.9078 7.09686 18.5105 5.8258 17.7602L5.52357 17.5816L2.39078 18.3993L3.22686 15.3595L3.03012 15.0478C2.20169 13.7363 1.76384 12.2203 1.76478 10.6641C1.76671 6.12265 5.47965 2.42752 10.0454 2.42752C12.2561 2.4285 14.3342 3.28625 15.8969 4.84344C17.4598 6.40017 18.3197 8.47015 18.3187 10.6708C18.3168 15.2127 14.6039 18.9078 10.042 18.9078V18.9083ZM14.5819 12.7393C14.3331 12.6153 13.1099 12.0165 12.8816 11.9338C12.6534 11.8511 12.4877 11.8098 12.322 12.0578C12.1563 12.3059 11.6793 12.8638 11.5342 13.0286C11.389 13.194 11.2438 13.2145 10.9951 13.0904C10.7463 12.9664 9.94459 12.7051 8.99392 11.8616C8.25431 11.2048 7.75482 10.3942 7.60973 10.1461C7.46455 9.89809 7.59443 9.76407 7.71855 9.64098C7.83027 9.52983 7.96733 9.35163 8.09196 9.20715C8.21659 9.06267 8.25765 8.95913 8.34071 8.7942C8.42384 8.6288 8.38227 8.48444 8.32024 8.36033C8.25812 8.23634 7.76059 7.01743 7.55286 6.52182C7.35086 6.03905 7.14561 6.10462 6.99329 6.09654C6.84808 6.0894 6.68243 6.08799 6.51627 6.08799C6.35012 6.08799 6.08078 6.14973 5.85255 6.39783C5.62431 6.64581 4.98161 7.24508 4.98161 8.46344C4.98161 9.68188 5.8731 10.8599 5.99773 11.0253C6.12231 11.1906 7.75243 13.6916 10.2483 14.7646C10.8418 15.0197 11.3054 15.1723 11.6669 15.2863C12.2628 15.475 12.8052 15.4484 13.234 15.3847C13.712 15.3134 14.7061 14.7855 14.9133 14.2071C15.1205 13.6288 15.1205 13.1327 15.0585 13.0296C14.9964 12.9265 14.8303 12.8642 14.5815 12.7402L14.5819 12.7393Z" fill="#166534" fill-opacity="0.7"/>
</g>
<defs>
<clipPath id="clip0_237_294">
<rect width="20" height="20" fill="white" transform="translate(0 0.753906)"/>
</clipPath>
</defs>
</svg>
