<svg width="24" height="17" viewBox="0 0 24 17" fill="none" xmlns="http://www.w3.org/2000/svg">
<path d="M11.7383 0.270996C11.7679 0.270998 19.0806 0.271848 20.9014 0.768066C21.9151 1.04237 22.7071 1.83446 22.9814 2.84814C23.7576 5.97241 23.5788 10.907 22.9971 14.1519C22.7227 15.1653 21.9305 15.9566 20.917 16.231C19.0933 16.7283 11.7529 16.729 11.7529 16.729C11.6962 16.729 4.4066 16.7263 2.58984 16.231C1.57625 15.9567 0.78417 15.1654 0.509766 14.1519C-0.270951 11.0412 -0.0565088 6.10311 0.495117 2.86279C0.769488 1.84945 1.56084 1.05806 2.57422 0.783691C4.3979 0.286341 11.7383 0.270996 11.7383 0.270996ZM9.40137 12.0269L15.4902 8.49951L9.40137 4.97314V12.0269Z" fill="black" fill-opacity="1"/>
</svg>
