<svg width="16" height="18" viewBox="0 0 16 18" fill="none" xmlns="http://www.w3.org/2000/svg">
<path d="M9.69561 4.78125V0H2.90213C2.45037 0 2.08691 0.376172 2.08691 0.84375V17.1562C2.08691 17.6238 2.45037 18 2.90213 18H14.3152C14.7669 18 15.1304 17.6238 15.1304 17.1562V5.625H10.5108C10.0625 5.625 9.69561 5.24531 9.69561 4.78125ZM4.26083 2.53125C4.26083 2.37586 4.38243 2.25 4.53257 2.25H7.24996C7.40009 2.25 7.5217 2.37586 7.5217 2.53125V3.09375C7.5217 3.24914 7.40009 3.375 7.24996 3.375H4.53257C4.38243 3.375 4.26083 3.24914 4.26083 3.09375V2.53125ZM4.26083 4.78125C4.26083 4.62586 4.38243 4.5 4.53257 4.5H7.24996C7.40009 4.5 7.5217 4.62586 7.5217 4.78125V5.34375C7.5217 5.49914 7.40009 5.625 7.24996 5.625H4.53257C4.38243 5.625 4.26083 5.49914 4.26083 5.34375V4.78125ZM10.8101 13.5H12.413C12.7133 13.5 12.9565 13.7517 12.9565 14.0625C12.9565 14.3733 12.7133 14.625 12.413 14.625H10.8101C10.2513 14.625 9.74792 14.3037 9.49758 13.7862C9.39738 13.578 9.22278 13.557 9.15213 13.557C9.08148 13.557 8.90689 13.5777 8.81178 13.7746L8.55125 14.3139C8.50613 14.4073 8.43676 14.4859 8.3509 14.5408C8.26504 14.5957 8.1661 14.6247 8.06518 14.6246C8.05227 14.6246 8.0397 14.6239 8.02645 14.6229C7.80736 14.6071 7.61884 14.4559 7.54989 14.24L6.97822 12.4661L6.61782 13.5868C6.41776 14.2077 5.85763 14.625 5.22516 14.625H4.80431C4.50403 14.625 4.26083 14.3733 4.26083 14.0625C4.26083 13.7517 4.50403 13.5 4.80431 13.5H5.22516C5.38922 13.5 5.5346 13.3917 5.58657 13.2307L6.20444 11.3098C6.31653 10.9649 6.627 10.7329 6.97822 10.7329C7.32944 10.7329 7.6399 10.9645 7.75166 11.3098L8.22312 12.7737C8.89466 12.2045 10.0591 12.4327 10.465 13.2715C10.5336 13.4142 10.6674 13.5 10.8101 13.5ZM14.8926 3.69141L11.5672 0.246094C11.4144 0.0878906 11.2072 0 10.9898 0H10.7826V4.5H15.1304V4.28555C15.1304 4.06406 15.0455 3.84961 14.8926 3.69141Z" fill="black"/>
</svg>
