<svg width="16" height="18" viewBox="0 0 16 18" fill="none" xmlns="http://www.w3.org/2000/svg">
<path d="M7.78787 5.70911L2.66688 10.3465V15.3515C2.66688 15.4811 2.7137 15.6054 2.79704 15.697C2.88039 15.7887 2.99342 15.8402 3.11129 15.8402L6.22383 15.8313C6.3413 15.8307 6.45377 15.7789 6.53664 15.6873C6.6195 15.5958 6.66602 15.4718 6.66601 15.3427V12.4198C6.66601 12.2902 6.71284 12.1659 6.79618 12.0743C6.87952 11.9826 6.99256 11.9311 7.11042 11.9311H8.88807C9.00593 11.9311 9.11897 11.9826 9.20231 12.0743C9.28565 12.1659 9.33248 12.2902 9.33248 12.4198V15.3405C9.33229 15.4048 9.34365 15.4685 9.3659 15.528C9.38816 15.5875 9.42086 15.6415 9.46215 15.687C9.50343 15.7326 9.55249 15.7687 9.6065 15.7934C9.6605 15.818 9.71841 15.8307 9.77689 15.8307L12.8883 15.8402C13.0062 15.8402 13.1192 15.7887 13.2026 15.697C13.2859 15.6054 13.3327 15.4811 13.3327 15.3515V10.3431L8.21284 5.70911C8.15265 5.65576 8.07767 5.62667 8.00036 5.62667C7.92304 5.62667 7.84806 5.65576 7.78787 5.70911ZM15.877 8.86105L13.5549 6.7566V2.52663C13.5549 2.42943 13.5198 2.33622 13.4573 2.26749C13.3948 2.19877 13.31 2.16016 13.2216 2.16016H11.6662C11.5778 2.16016 11.493 2.19877 11.4305 2.26749C11.368 2.33622 11.3329 2.42943 11.3329 2.52663V4.74407L8.84612 2.49456C8.60748 2.27864 8.30802 2.16059 7.99897 2.16059C7.68991 2.16059 7.39045 2.27864 7.15181 2.49456L0.120963 8.86105C0.0872117 8.89172 0.0592882 8.9294 0.0387875 8.97195C0.0182869 9.01449 0.00561089 9.06105 0.00148382 9.10898C-0.00264326 9.15691 0.00185948 9.20527 0.0147348 9.25128C0.02761 9.2973 0.0486055 9.34007 0.0765215 9.37716L0.7848 10.3239C0.81264 10.3611 0.846884 10.3919 0.88557 10.4146C0.924256 10.4372 0.966626 10.4513 1.01025 10.4559C1.05388 10.4605 1.09791 10.4556 1.13982 10.4415C1.18173 10.4274 1.22069 10.4043 1.25449 10.3737L7.78787 4.457C7.84806 4.40366 7.92304 4.37457 8.00036 4.37457C8.07767 4.37457 8.15265 4.40366 8.21284 4.457L14.7465 10.3737C14.7802 10.4043 14.8191 10.4274 14.861 10.4416C14.9028 10.4557 14.9468 10.4607 14.9904 10.4562C15.034 10.4516 15.0764 10.4377 15.1151 10.4151C15.1537 10.3926 15.188 10.3619 15.2159 10.3248L15.9242 9.37808C15.9521 9.34077 15.973 9.29778 15.9857 9.25156C15.9984 9.20534 16.0027 9.15682 15.9983 9.10877C15.9939 9.06073 15.981 9.01411 15.9601 8.97159C15.9393 8.92908 15.911 8.89151 15.877 8.86105Z" fill="black"/>
</svg>
