<svg width="16" height="18" viewBox="0 0 16 18" fill="none" xmlns="http://www.w3.org/2000/svg">
<path d="M11.0531 7.25131C11.0531 4.83692 8.57894 2.87988 5.52657 2.87988C2.4742 2.87988 0 4.83692 0 7.25131C0 8.18762 0.375435 9.05316 1.00886 9.76434C0.653889 10.5905 0.0669565 11.2446 0.0584541 11.2539C0.0298442 11.2849 0.0106992 11.3238 0.00338903 11.3659C-0.00392113 11.4079 0.000924563 11.4513 0.0173262 11.4905C0.0337279 11.5298 0.0609654 11.5632 0.0956668 11.5867C0.130368 11.6102 0.17101 11.6228 0.21256 11.6227C1.18449 11.6227 1.99089 11.2881 2.57012 10.9403C3.42568 11.3703 4.43773 11.6227 5.52657 11.6227C8.57894 11.6227 11.0531 9.66571 11.0531 7.25131ZM5.10145 9.87417V9.4291C4.80147 9.41326 4.50973 9.30561 4.26795 9.119C4.16432 9.03895 4.15901 8.8794 4.2528 8.78732L4.565 8.48105C4.6386 8.40892 4.74807 8.40564 4.83415 8.4611C4.93698 8.52722 5.05362 8.56274 5.17478 8.56274H5.92167C6.09437 8.56274 6.23519 8.401 6.23519 8.20237C6.23519 8.03981 6.13928 7.89664 6.00217 7.85457L4.80652 7.48573C4.31258 7.33328 3.96744 6.84586 3.96744 6.30025C3.96744 5.63033 4.4736 5.08609 5.10118 5.06888V4.62845C5.10118 4.50769 5.1963 4.40988 5.31374 4.40988H5.73886C5.8563 4.40988 5.95143 4.50769 5.95143 4.62845V5.07352C6.2514 5.08937 6.54314 5.19674 6.78493 5.38362C6.88855 5.46367 6.89386 5.62323 6.80007 5.7153L6.48787 6.02157C6.41428 6.0937 6.30481 6.09698 6.21872 6.04152C6.11589 5.97513 5.99925 5.93988 5.87809 5.93988H5.13121C4.9585 5.93988 4.81768 6.10163 4.81768 6.30025C4.81768 6.46281 4.9136 6.60598 5.0507 6.64805L6.24635 7.01689C6.74029 7.16935 7.08544 7.65676 7.08544 8.20237C7.08544 8.87256 6.57928 9.41653 5.95169 9.43375V9.87417C5.95169 9.99493 5.85657 10.0927 5.73913 10.0927H5.31401C5.19657 10.0927 5.10145 9.99493 5.10145 9.87417ZM14.295 13.2618C14.9289 12.5506 15.3043 11.6848 15.3043 10.7485C15.3043 8.91956 13.8831 7.35513 11.868 6.70297C11.8909 6.88329 11.9034 7.06607 11.9034 7.25131C11.9034 10.1438 9.04285 12.497 5.52657 12.497C5.24014 12.497 4.9601 12.476 4.6835 12.4457C5.52126 14.0169 7.48664 15.1199 9.77778 15.1199C10.8666 15.1199 11.8787 14.8674 12.7342 14.4374C13.3135 14.7852 14.1199 15.1199 15.0918 15.1199C15.1768 15.1199 15.2536 15.0677 15.2868 14.9876C15.3206 14.9073 15.3043 14.8144 15.2456 14.7508C15.2374 14.7418 14.6499 14.0885 14.295 13.2618Z" fill="black"/>
</svg>
