<svg width="112" height="29" viewBox="0 0 112 29" fill="none" xmlns="http://www.w3.org/2000/svg">
<g clip-path="url(#clip0_230_331)">
<path fill-rule="evenodd" clip-rule="evenodd" d="M63.4504 9.32478C64.8633 8.55489 66.2754 8.1692 68.0733 8.1692C72.4406 8.1692 75.7797 12.0231 75.7797 17.2884C75.7797 23.9675 71.6699 28.2063 64.8625 28.2063C62.4215 28.2063 59.9807 27.8206 57.6687 27.3067C57.7978 24.609 57.9277 8.1692 57.6687 5.0867C57.4144 3.54469 57.0272 2.90312 55.8723 2.64648L54.9734 2.51818V1.74755L63.5793 0.207031C63.4504 1.49092 63.4504 5.215 63.4504 9.32478ZM63.5779 26.665C63.9622 26.7926 64.6052 26.7926 65.1192 26.7926C67.8167 26.7926 69.7437 22.8119 69.7445 17.6727C69.7445 13.5636 68.2032 10.2245 65.3759 10.2245C64.7328 10.2245 64.2195 10.3528 63.4488 10.6102C63.3213 17.2884 63.4488 24.8671 63.5779 26.665Z" fill="black"/>
<path d="M0 0.720215H22.6056L22.7346 8.29819L21.45 8.68388C20.1662 4.82999 18.3683 2.64716 14.8993 2.64716H10.4046C10.2755 5.08736 10.1472 9.19713 10.1472 13.5643L13.229 13.4352C15.1559 13.4352 16.0535 11.8947 16.4399 9.71114H17.5961V18.8274H16.4399C16.0541 16.6445 15.1559 15.1033 13.229 15.1033L10.1465 14.975C10.1465 18.3135 10.2748 21.011 10.4039 22.6813C10.6605 25.1223 11.3028 26.2778 12.9724 26.4053L14.5136 26.6635V27.6908H0V26.6635L1.28463 26.4053C2.9542 26.2785 3.59578 25.1223 3.85241 22.6813C4.10978 18.7013 4.23883 10.352 3.85241 5.7282C3.59652 3.28798 2.95346 2.26073 1.28463 2.00411L0 1.87579V0.720215Z" fill="black"/>
<path fill-rule="evenodd" clip-rule="evenodd" d="M39.5602 18.0591C39.5602 12.2797 36.3492 7.9126 29.9269 7.9126C23.5045 7.9126 19.9087 12.5364 19.9087 18.0591C19.9087 23.8392 23.1195 28.2071 29.5412 28.2071C35.9636 28.2071 39.5602 23.5818 39.5602 18.0591ZM25.9447 18.0591C25.9447 13.0504 26.7153 9.19722 29.5412 9.19722C32.2394 9.19722 33.5226 13.1787 33.5226 18.0591C33.5226 23.0678 32.7506 26.9209 29.7986 26.9209C27.2293 26.9209 25.9447 22.9395 25.9447 18.0591Z" fill="black"/>
<path fill-rule="evenodd" clip-rule="evenodd" d="M87.3386 7.9126C80.7879 7.9126 77.4487 12.922 77.4487 18.1882C77.4487 24.0965 81.5585 28.2063 87.3386 28.2071C90.9343 28.2071 93.7595 26.4077 95.0441 24.6098L94.5315 23.9682C93.2462 24.8679 92.219 25.3805 90.1637 25.3805C85.5392 25.3805 83.2273 21.9122 83.3564 17.1601H95.3015C95.3015 11.8948 92.7314 7.9126 87.3386 7.9126ZM89.3931 15.6189L83.3564 15.7479C83.484 12.793 84.6418 9.19722 86.8245 9.19722C89.0074 9.19722 89.3931 13.0504 89.3931 15.6189Z" fill="black"/>
<path d="M104.68 7.9126C106.992 7.9126 109.047 8.29754 110.588 8.94059L110.719 13.9493L109.821 14.2059C108.663 10.7377 107.122 9.32479 104.811 9.32479C103.27 9.32479 102.112 10.4811 102.112 12.1507C102.112 13.821 103.396 14.7199 106.993 16.1322C110.332 17.4176 111.746 18.958 111.746 21.6555C111.746 25.6363 108.534 28.2063 103.525 28.2063C101.084 28.2063 98.2585 27.6916 96.7172 27.05L96.5881 21.399L97.4879 21.1408C98.9 24.9947 100.699 26.407 103.139 26.407C105.194 26.407 106.35 24.9947 106.35 23.4534C106.35 21.9122 105.451 21.0126 102.241 19.8578C99.1545 18.8297 96.9731 17.4176 96.9731 14.0776C96.9731 10.7377 99.9289 7.9126 104.68 7.9126Z" fill="black"/>
<path d="M48.1655 12.4086C50.2201 7.78408 54.0738 7.14325 56.2567 8.4264L54.2015 13.6932C51.633 12.0237 48.807 12.7935 48.1655 13.6932C48.0364 16.7757 48.0364 21.6561 48.293 24.0971C48.4221 25.6369 48.8078 26.4075 50.0917 26.5365L51.633 26.6656V27.6929H39.6885V26.6656L40.5874 26.5365C41.7446 26.4075 42.257 25.6369 42.3861 24.0971C42.5145 21.4002 42.6428 16.0051 42.3861 12.9226C42.257 11.2523 41.7446 10.6107 40.5874 10.4816L39.6885 10.3533V9.58271L48.293 7.91313L48.1655 12.4086Z" fill="black"/>
</g>
<defs>
<clipPath id="clip0_230_331">
<rect width="112" height="28" fill="white" transform="translate(0 0.207031)"/>
</clipPath>
</defs>
</svg>
