<svg width="8" height="10" viewBox="0 0 8 10" fill="none" xmlns="http://www.w3.org/2000/svg">
<path d="M1.08333 9.5C0.760677 9.5 0.5 9.24863 0.5 8.9375C0.5 8.62637 0.760677 8.375 1.08333 8.375H6.91667C7.23932 8.375 7.5 8.62637 7.5 8.9375C7.5 9.24863 7.23932 9.5 6.91667 9.5H1.08333ZM4.41198 7.08477C4.18411 7.30449 3.81406 7.30449 3.5862 7.08477L1.25286 4.83477C1.025 4.61504 1.025 4.2582 1.25286 4.03848C1.48073 3.81875 1.85078 3.81875 2.07865 4.03848L3.41667 5.32871V1.0625C3.41667 0.751367 3.67734 0.5 4 0.5C4.32266 0.5 4.58333 0.751367 4.58333 1.0625V5.32871L5.92135 4.03848C6.14922 3.81875 6.51927 3.81875 6.74714 4.03848C6.975 4.2582 6.975 4.61504 6.74714 4.83477L4.4138 7.08477H4.41198Z" fill="white"/>
</svg>
