<svg width="25" height="24" viewBox="0 0 25 24" fill="none" xmlns="http://www.w3.org/2000/svg">
<path d="M9.5001 7.1999C9.5001 5.5424 10.8426 4.1999 12.5001 4.1999C14.1576 4.1999 15.5001 5.5424 15.5001 7.1999C15.5001 8.8574 14.1576 10.1999 12.5001 10.1999C10.8426 10.1999 9.5001 8.8574 9.5001 7.1999ZM17.3001 7.1999C17.3001 4.54865 15.1513 2.3999 12.5001 2.3999C9.84885 2.3999 7.7001 4.54865 7.7001 7.1999C7.7001 9.85115 9.84885 11.9999 12.5001 11.9999C15.1513 11.9999 17.3001 9.85115 17.3001 7.1999ZM5.9001 20.3999C5.9001 17.7487 8.04885 15.5999 10.7001 15.5999H14.3001C16.9513 15.5999 19.1001 17.7487 19.1001 20.3999V20.6999C19.1001 21.1987 19.5013 21.5999 20.0001 21.5999C20.4988 21.5999 20.9001 21.1987 20.9001 20.6999V20.3999C20.9001 16.7549 17.9451 13.7999 14.3001 13.7999H10.7001C7.0551 13.7999 4.1001 16.7549 4.1001 20.3999V20.6999C4.1001 21.1987 4.50135 21.5999 5.0001 21.5999C5.49885 21.5999 5.9001 21.1987 5.9001 20.6999V20.3999Z" fill="#424242"/>
</svg>
