<svg width="20" height="21" viewBox="0 0 20 21" fill="none" xmlns="http://www.w3.org/2000/svg">
<path d="M3.29253 6.90249C3.4799 6.7153 3.73399 6.61014 3.99892 6.61014C4.26386 6.61014 4.51795 6.7153 4.70532 6.90249L9.99375 12.1875L15.2822 6.90249C15.3744 6.80712 15.4846 6.73105 15.6065 6.67872C15.7284 6.62639 15.8595 6.59885 15.9922 6.59769C16.1248 6.59654 16.2564 6.62181 16.3792 6.67201C16.502 6.72222 16.6135 6.79636 16.7074 6.89011C16.8012 6.98386 16.8754 7.09534 16.9256 7.21805C16.9758 7.34077 17.0011 7.47225 17 7.60483C16.9988 7.7374 16.9712 7.86843 16.9189 7.99025C16.8665 8.11207 16.7904 8.22225 16.695 8.31435L10.7001 14.3053C10.5128 14.4925 10.2587 14.5977 9.99375 14.5977C9.72882 14.5977 9.47473 14.4925 9.28736 14.3053L3.29253 8.31435C3.10522 8.12711 3 7.87318 3 7.60842C3 7.34365 3.10522 7.08973 3.29253 6.90249Z" fill="black" fill-opacity="0.3"/>
</svg>
