<svg width="18" height="19" viewBox="0 0 18 19" fill="none" xmlns="http://www.w3.org/2000/svg">
<g clip-path="url(#clip0_230_109)">
<path d="M11.6078 9.91357L12.7441 16.3081C12.7568 16.3834 12.7462 16.4608 12.7138 16.5299C12.6813 16.599 12.6286 16.6566 12.5625 16.6949C12.4965 16.7332 12.4203 16.7505 12.3442 16.7444C12.268 16.7382 12.1956 16.709 12.1366 16.6606L9.45156 14.6453C9.32194 14.5485 9.16448 14.4962 9.00268 14.4962C8.84089 14.4962 8.68343 14.5485 8.55381 14.6453L5.86431 16.6598C5.8053 16.7082 5.73295 16.7373 5.65693 16.7435C5.5809 16.7496 5.50481 16.7324 5.43881 16.6942C5.3728 16.656 5.32001 16.5986 5.2875 16.5296C5.25498 16.4606 5.24427 16.3833 5.25681 16.3081L6.39231 9.91357" stroke="#166534" stroke-width="2" stroke-linecap="round" stroke-linejoin="round"/>
<path d="M9 10.7461C11.4853 10.7461 13.5 8.73138 13.5 6.24609C13.5 3.76081 11.4853 1.74609 9 1.74609C6.51472 1.74609 4.5 3.76081 4.5 6.24609C4.5 8.73138 6.51472 10.7461 9 10.7461Z" stroke="#166534" stroke-width="2" stroke-linecap="round" stroke-linejoin="round"/>
</g>
<defs>
<clipPath id="clip0_230_109">
<rect width="18" height="18" fill="white" transform="translate(0 0.246094)"/>
</clipPath>
</defs>
</svg>
