<svg width="18" height="19" viewBox="0 0 18 19" fill="none" xmlns="http://www.w3.org/2000/svg">
<g clip-path="url(#clip0_230_105)">
<path d="M15 10.3086C15 14.0586 12.375 15.9336 9.255 17.0211C9.09162 17.0764 8.91415 17.0738 8.7525 17.0136C5.625 15.9336 3 14.0586 3 10.3086V5.05856C3 4.85965 3.07902 4.66889 3.21967 4.52823C3.36032 4.38758 3.55109 4.30856 3.75 4.30856C5.25 4.30856 7.125 3.40856 8.43 2.26856C8.58889 2.13281 8.79102 2.05823 9 2.05823C9.20898 2.05823 9.41111 2.13281 9.57 2.26856C10.8825 3.41606 12.75 4.30856 14.25 4.30856C14.4489 4.30856 14.6397 4.38758 14.7803 4.52823C14.921 4.66889 15 4.85965 15 5.05856V10.3086Z" stroke="#0056C7" stroke-width="2" stroke-linecap="round" stroke-linejoin="round"/>
</g>
<defs>
<clipPath id="clip0_230_105">
<rect width="18" height="18" fill="white" transform="translate(0 0.558594)"/>
</clipPath>
</defs>
</svg>
